<svg xmlns="http://www.w3.org/2000/svg" xmlns:xlink="http://www.w3.org/1999/xlink" viewBox="0 0 497.65 269.39"><defs><style>.cls-1{fill:none;}.cls-2{fill:#008243;}.cls-3{fill:#549866;}.cls-4{fill:#f6acaa;}.cls-5{fill:#f0786a;}.cls-6{fill:#d3d3d3;}.cls-7{fill:url(#Tulips_Color);}.cls-8{fill:#403f4c;}</style><pattern id="Tulips_Color" data-name="Tulips Color" width="72.12" height="72.12" patternTransform="matrix(2.75, 0, 0, -2.75, -439.83, 3531.9)" patternUnits="userSpaceOnUse" viewBox="0 0 72.12 72.12"><rect class="cls-1" width="72.12" height="72.12"/><rect class="cls-1" width="72.12" height="72.12"/><rect class="cls-2" x="70.74" y="-6.57" width="2.75" height="13.13"/><rect class="cls-2" x="-1.38" y="-6.57" width="2.75" height="13.13"/><rect class="cls-2" x="70.74" y="-6.57" width="2.75" height="13.13"/><polygon class="cls-2" points="7.38 -1.87 7.38 1.13 1.94 -3 1.94 -6 7.38 -1.87"/><polygon class="cls-2" points="64.74 -1.87 64.74 1.13 70.18 -3 70.18 -6 64.74 -1.87"/><polygon class="cls-3" points="7.38 1.13 7.38 4.13 1.94 0 1.94 -3 7.38 1.13"/><polygon class="cls-3" points="64.74 1.13 64.74 4.13 70.18 0 70.18 -3 64.74 1.13"/><rect class="cls-2" x="-1.38" y="-6.57" width="2.75" height="13.13"/><polygon class="cls-4" points="66.12 20.94 69.12 17.94 72.12 20.94 75.12 17.94 78.12 20.94 78.12 16.25 75.12 13.25 72.12 16.25 69.12 13.25 66.12 16.25 66.12 20.94"/><polygon class="cls-5" points="66.12 9.94 69.12 6.94 75.12 6.94 78.12 9.94 78.12 16.25 75.12 13.25 72.12 16.25 69.12 13.25 66.12 16.25 66.12 9.94"/><rect class="cls-2" x="70.74" y="65.55" width="2.75" height="13.13"/><rect class="cls-2" x="70.74" y="-6.57" width="2.75" height="13.13"/><polygon class="cls-4" points="-6 20.94 -3 17.94 0 20.94 3 17.94 6 20.94 6 16.25 3 13.25 0 16.25 -3 13.25 -6 16.25 -6 20.94"/><polygon class="cls-4" points="66.12 20.94 69.12 17.94 72.12 20.94 75.12 17.94 78.12 20.94 78.12 16.25 75.12 13.25 72.12 16.25 69.12 13.25 66.12 16.25 66.12 20.94"/><polygon class="cls-4" points="30.06 57 33.06 54 36.06 57 39.06 54 42.06 57 42.06 52.31 39.06 49.31 36.06 52.31 33.06 49.31 30.06 52.31 30.06 57"/><polygon class="cls-5" points="-6 9.94 -3 6.94 3 6.94 6 9.94 6 16.25 3 13.25 0 16.25 -3 13.25 -6 16.25 -6 9.94"/><polygon class="cls-5" points="66.12 9.94 69.12 6.94 75.12 6.94 78.12 9.94 78.12 16.25 75.12 13.25 72.12 16.25 69.12 13.25 66.12 16.25 66.12 9.94"/><polygon class="cls-5" points="30.06 46 33.06 43 39.06 43 42.06 46 42.06 52.31 39.06 49.31 36.06 52.31 33.06 49.31 30.06 52.31 30.06 46"/><rect class="cls-2" x="-1.38" y="65.55" width="2.75" height="13.13"/><rect class="cls-2" x="-1.38" y="-6.57" width="2.75" height="13.13"/><rect class="cls-2" x="70.74" y="-6.57" width="2.75" height="13.13"/><rect class="cls-2" x="70.74" y="65.55" width="2.75" height="13.13"/><rect class="cls-2" x="34.68" y="29.49" width="2.75" height="13.13"/><polygon class="cls-2" points="7.38 70.24 7.38 73.25 1.94 69.12 1.94 66.12 7.38 70.24"/><polygon class="cls-2" points="7.38 -1.87 7.38 1.13 1.94 -3 1.94 -6 7.38 -1.87"/><polygon class="cls-2" points="64.74 -1.87 64.74 1.13 70.18 -3 70.18 -6 64.74 -1.87"/><polygon class="cls-2" points="64.74 70.24 64.74 73.25 70.18 69.12 70.18 66.12 64.74 70.24"/><polygon class="cls-2" points="43.43 34.18 43.43 37.18 38 33.06 38 30.06 43.43 34.18"/><polygon class="cls-2" points="28.68 34.18 28.68 37.18 34.12 33.06 34.12 30.06 28.68 34.18"/><polygon class="cls-3" points="7.38 73.25 7.38 76.25 1.94 72.12 1.94 69.12 7.38 73.25"/><polygon class="cls-3" points="7.38 1.13 7.38 4.13 1.94 0 1.94 -3 7.38 1.13"/><polygon class="cls-3" points="64.74 1.13 64.74 4.13 70.18 0 70.18 -3 64.74 1.13"/><polygon class="cls-3" points="64.74 73.25 64.74 76.25 70.18 72.12 70.18 69.12 64.74 73.25"/><polygon class="cls-3" points="43.43 37.18 43.43 40.19 38 36.06 38 33.06 43.43 37.18"/><polygon class="cls-3" points="28.68 37.18 28.68 40.19 34.12 36.06 34.12 33.06 28.68 37.18"/><polygon class="cls-4" points="-6 20.94 -3 17.94 0 20.94 3 17.94 6 20.94 6 16.25 3 13.25 0 16.25 -3 13.25 -6 16.25 -6 20.94"/><polygon class="cls-5" points="-6 9.94 -3 6.94 3 6.94 6 9.94 6 16.25 3 13.25 0 16.25 -3 13.25 -6 16.25 -6 9.94"/><rect class="cls-2" x="-1.38" y="-6.57" width="2.75" height="13.13"/><rect class="cls-2" x="-1.38" y="65.55" width="2.75" height="13.13"/><rect class="cls-2" x="70.74" y="65.55" width="2.75" height="13.13"/><rect class="cls-2" x="-1.38" y="65.55" width="2.75" height="13.13"/><rect class="cls-2" x="70.74" y="65.55" width="2.75" height="13.13"/><polygon class="cls-2" points="7.38 70.24 7.38 73.25 1.94 69.12 1.94 66.12 7.38 70.24"/><polygon class="cls-2" points="64.74 70.24 64.74 73.25 70.18 69.12 70.18 66.12 64.74 70.24"/><polygon class="cls-3" points="7.38 73.25 7.38 76.25 1.94 72.12 1.94 69.12 7.38 73.25"/><polygon class="cls-3" points="64.74 73.25 64.74 76.25 70.18 72.12 70.18 69.12 64.74 73.25"/><rect class="cls-2" x="-1.38" y="65.55" width="2.75" height="13.13"/></pattern></defs><g id="full-logo"><path class="cls-6" d="M251.17,113.93a5.5,5.5,0,0,0-5.5,5.5v5.51h-.86l-1.68.25A113.09,113.09,0,0,0,219.3,63.45l6-4.32a4.57,4.57,0,0,0,.66-.58l4,4a5.46,5.46,0,1,0,7.71-7.74L215.8,33a5.5,5.5,0,0,0-7.73,7.73l3.88,4a6.53,6.53,0,0,0-.55.63l-3.88,5.37a113.34,113.34,0,0,0-69.4-30.58l1.32-8.26a4,4,0,0,0,0-.85H145a5.51,5.51,0,0,0,0-11H114.23a5.51,5.51,0,0,0,0,11h5.51a6,6,0,0,0,0,.85l1.32,8.26A113.54,113.54,0,0,0,50.92,51.45l-6.38-8.84c-.17-.23-.36-.45-.55-.66l4-4a5.51,5.51,0,0,0-7.71-7.74L18.36,52.11a5.47,5.47,0,0,0,7.73,7.73l4-4,.63.58,9.49,6.82a113.41,113.41,0,0,0-24.36,68.82l-9.52-1.52A5.48,5.48,0,0,0,0,136v8.75a5.49,5.49,0,0,0,1.93,4.08,5.49,5.49,0,0,0,3.58,1.37h.85l10.46-1.7A113.58,113.58,0,0,0,43.49,208l-1,.68a5.52,5.52,0,0,0-.66,8.32l6.19,6.14a5.51,5.51,0,0,0,3.85,1.59h.39a5.49,5.49,0,0,0,4-2.26l.83-1.12a113.79,113.79,0,0,0,185.79-77.08l1.88.31h.85V150a5.51,5.51,0,1,0,11,0V119.41A5.51,5.51,0,0,0,251.17,113.93Zm-94.44,3.14a11.73,11.73,0,1,1-.92-16.56l.48.45a11.36,11.36,0,0,1,.47,16.07Zm41.73,40c-5.34,5.34-13.32,6-17.84,1.55s-3.8-12.47,1.57-17.84,13.32-6.06,17.84-1.54S203.83,151.69,198.46,157Zm-12.22-48.77a18,18,0,0,1-1.1-25.33c6.66-6.68,18-6.19,25.29,1.11a17.93,17.93,0,0,1,1.13,25.32A17.94,17.94,0,0,1,186.24,108.26Z"/><path class="cls-6" d="M225.27,200.41,203.41,222.3a5.47,5.47,0,0,0,7.74,7.73L233,208a5.5,5.5,0,1,0-6.84-8.62,5.35,5.35,0,0,0-.89.89Z"/><path class="cls-7" d="M225.71,200.41l-22,21.89a5.47,5.47,0,0,0,7.73,7.73l21.86-22a5.51,5.51,0,0,0-7.57-7.6Z"/><path class="cls-8" d="M145.14,261.14H114.23a4.13,4.13,0,1,0,0,8.25h30.91a4.13,4.13,0,1,0,0-8.25Z"/><path class="cls-8" d="M145.14,249.18H114.23a4.13,4.13,0,0,0,0,8.26h30.91a4.13,4.13,0,1,0,0-8.26Z"/><circle class="cls-8" cx="129.67" cy="221.77" r="22.3"/><g id="raleway_then_moved_tops_of_b_d_and_t_by_20_px_i_beleive" data-name="raleway then moved tops of b d and t by 20 px i beleive"><path class="cls-8" d="M46.44,242.66a17.88,17.88,0,0,1-9.57-2.75c-2.83-1.72-7.38-6.83-7.38-6.83v9.33H26.65V189.33h2.84v19.3a41.65,41.65,0,0,1,8-7.49,16.83,16.83,0,0,1,9.76-2.84,16.84,16.84,0,0,1,8.34,2,19.88,19.88,0,0,1,6.16,5.12,23.58,23.58,0,0,1,3.89,7.11,23.26,23.26,0,0,1,1.42,8,22.87,22.87,0,0,1-1.61,8.34,22.61,22.61,0,0,1-4.36,7,21.71,21.71,0,0,1-6.54,4.83A17.38,17.38,0,0,1,46.44,242.66Zm0-2.66a16.24,16.24,0,0,0,7.3-1.7,17.51,17.51,0,0,0,5.78-4.46,19.91,19.91,0,0,0,3.79-6.25,20.6,20.6,0,0,0,1.33-7.11,24.79,24.79,0,0,0-1.23-7.4,18,18,0,0,0-3.61-6.25,17.38,17.38,0,0,0-5.49-4.36,14.17,14.17,0,0,0-7.11-1.61,15.6,15.6,0,0,0-5.5.94,17.26,17.26,0,0,0-4.64,2.66,23.9,23.9,0,0,0-3.8,3.79,23.27,23.27,0,0,0-2.84,4.55v14.88a9.76,9.76,0,0,0,1.9,4.74,15.1,15.1,0,0,0,3.88,3.89A18.74,18.74,0,0,0,41.34,239,13.24,13.24,0,0,0,46.46,240Z"/><path class="cls-8" d="M100.49,201.65a15.77,15.77,0,0,0-10.09,4.06A19.3,19.3,0,0,0,84.47,216v25.49H80.68V198.8h2.84v10.81a20.67,20.67,0,0,1,6.18-7.33,17.14,17.14,0,0,1,8.24-3.38,9.07,9.07,0,0,1,1.57-.1h1.07v2.85Z"/><path class="cls-8" d="M173,242.66a15.38,15.38,0,0,1-5.49-1,14.82,14.82,0,0,1-4.46-2.85,11.89,11.89,0,0,1-2.94-4.17,13.87,13.87,0,0,1-1-5.21,10.44,10.44,0,0,1,1.33-5,12.11,12.11,0,0,1,3.69-3.88,19.87,19.87,0,0,1,5.6-2.56,26.19,26.19,0,0,1,7.1-.95,46.86,46.86,0,0,1,7.3.57c2.26.38,7.51,1.71,7.51,1.71v-4.46s-2.1-7.68-4.57-10.24-5.78-3.79-9.86-3.79a18.51,18.51,0,0,0-6.73,1.33,28.6,28.6,0,0,0-7.11,3.89L162,203.89c5.5-3.7,10.61-5.59,15.26-5.59,5,0,8.91,1.51,11.85,4.45S193.48,215,193.48,215v22.37s.45,1.8,1.89,1.8v2.66a1.14,1.14,0,0,1-.87-.35h-.38s-1.76.06-2.37-.6a4.8,4.8,0,0,1-1.12-2.56v-3.79a17.41,17.41,0,0,1-7.5,6A23.71,23.71,0,0,1,173,242.66Zm.21-2.37a22.89,22.89,0,0,0,6.16-.85,20.68,20.68,0,0,0,5.6-2.28,15.14,15.14,0,0,0,4.07-3.32,7,7,0,0,0,1.61-4.07v-8.06a37.49,37.49,0,0,0-13.74-2.46,22.46,22.46,0,0,0-6.16.75,15.55,15.55,0,0,0-4.84,2.09,8.56,8.56,0,0,0-3.13,3.22,8.16,8.16,0,0,0-1.13,4.17,9.29,9.29,0,0,0,1,4.27,10.83,10.83,0,0,0,6.06,5.78A14.67,14.67,0,0,0,173.19,240.29Z"/><path class="cls-8" d="M227.68,242.66a19.14,19.14,0,0,1-8.25-1.9,21.1,21.1,0,0,1-6.54-5,21.43,21.43,0,0,1-4.27-7,21.82,21.82,0,0,1-1.51-8.15,23.9,23.9,0,0,1,1.51-8.53,23.47,23.47,0,0,1,4.17-7.11,19.68,19.68,0,0,1,6.26-4.83,17.7,17.7,0,0,1,8-1.8,17.43,17.43,0,0,1,5.41.85,21.48,21.48,0,0,1,4.73,2.28,26.37,26.37,0,0,1,4,3.31c1.14,1.22,2.16,2.56,3.52,4V189.33h1.9v48a3.6,3.6,0,0,0,1.89,1.8v2.53a1.26,1.26,0,0,1-.61.09,2.82,2.82,0,0,1-2.3-1.06,3.35,3.35,0,0,1-.88-2.38V233a46,46,0,0,1-3.43,3.89,24.45,24.45,0,0,1-4,3,19.73,19.73,0,0,1-4.55,1.9A15.89,15.89,0,0,1,227.68,242.66ZM227.6,240a15.94,15.94,0,0,0,5.12-.94,26.76,26.76,0,0,0,5.12-2.66,17.68,17.68,0,0,0,4-4,9.75,9.75,0,0,0,1.89-4.74V212.89a15.77,15.77,0,0,0-2.74-4.73,19.36,19.36,0,0,0-4.08-3.8A22.85,22.85,0,0,0,232,201.8a15.41,15.41,0,0,0-5.12-.94,16.05,16.05,0,0,0-7.2,1.7,17.84,17.84,0,0,0-5.5,4.46,22.78,22.78,0,0,0-3.51,6.25,20.82,20.82,0,0,0-1.23,7.21,19.9,19.9,0,0,0,1.42,7.39,18.25,18.25,0,0,0,3.89,6.16,17.83,17.83,0,0,0,5.69,4.27A16.05,16.05,0,0,0,227.6,240Z"/><path class="cls-8" d="M281,242.66a28.85,28.85,0,0,1-9.29-1.61,20.65,20.65,0,0,1-7.58-5.12l1.52-1.9a23.66,23.66,0,0,0,7.11,4.74,21.37,21.37,0,0,0,8.05,1.61,17.09,17.09,0,0,0,9.77-2.56,8.32,8.32,0,0,0,3.69-7.2,7,7,0,0,0-.95-3.6,8.93,8.93,0,0,0-2.74-2.56,18.93,18.93,0,0,0-4.55-1.8c-1.81-.57-3.8-1-6.17-1.61s-4.45-1.05-6.16-1.61a19.87,19.87,0,0,1-4.36-1.9,6.59,6.59,0,0,1-2.56-2.75,10.69,10.69,0,0,1-.85-4.17,10.56,10.56,0,0,1,4.65-9.29,16,16,0,0,1,4.83-2.27,23.77,23.77,0,0,1,5.88-.76,20.52,20.52,0,0,1,8.91,1.7,13.78,13.78,0,0,1,5.49,4.36l-1.89,1.43a11.26,11.26,0,0,0-5.31-3.8,22.46,22.46,0,0,0-7.49-1.32,18.92,18.92,0,0,0-4.74.57,11.05,11.05,0,0,0-3.88,1.7,8.54,8.54,0,0,0-3.7,7.3,8.07,8.07,0,0,0,.66,3.32,6.08,6.08,0,0,0,2.09,2.27,17,17,0,0,0,3.6,1.52c1.42.38,3.22.85,5.31,1.33,2.65.57,4.93,1.23,7,1.8a21.14,21.14,0,0,1,5.22,2.18,9.08,9.08,0,0,1,3.22,3,10,10,0,0,1,1.14,4.65,12,12,0,0,1-1.14,5.11,11.66,11.66,0,0,1-3.22,3.89,16.2,16.2,0,0,1-5.12,2.56A28,28,0,0,1,281,242.66Z"/><path class="cls-8" d="M333.1,240.13l-.85.48c-.57.28-1.14.56-1.8.85a25.86,25.86,0,0,1-2.56.76,12.07,12.07,0,0,1-3.23.28,9.26,9.26,0,0,1-5.59-1.89,6.22,6.22,0,0,1-2.37-5.22V201.65h-6.63V198.8h6.63v-7.58h2.84v7.58H330v2.85H319.54V235a4.5,4.5,0,0,0,1.81,3.61,6.27,6.27,0,0,0,3.79,1.23,11.62,11.62,0,0,0,2.56-.29,12.57,12.57,0,0,0,2.08-.66c.48-.19,1-.47,1.52-.66.19-.1.47-.29.66-.38Z"/><path class="cls-8" d="M368.83,201.44a16.46,16.46,0,0,0-10.09,3.75,18.4,18.4,0,0,0-6,9.49v26.78h-2.84V198.8h2.84v10.81a20.67,20.67,0,0,1,6.18-7.33,17.14,17.14,0,0,1,8.24-3.38,9,9,0,0,1,1.56-.1h.13Z"/><path class="cls-8" d="M394.62,242.69a18.51,18.51,0,0,1-8.15-1.8,22,22,0,0,1-6.64-4.83,23.49,23.49,0,0,1-4.45-7.21,24.51,24.51,0,0,1-1.62-8.72,22.08,22.08,0,0,1,1.62-8.53,21.5,21.5,0,0,1,10.9-11.66,18.32,18.32,0,0,1,8.05-1.7,20.35,20.35,0,0,1,8.25,1.7,21.81,21.81,0,0,1,6.63,4.74,23.12,23.12,0,0,1,4.46,7.11,24.36,24.36,0,0,1,1.61,8.53V221c0,.29,0,.48-.09.57H376.7a22.57,22.57,0,0,0,1.9,7.4,19,19,0,0,0,9.57,9.76,16.43,16.43,0,0,0,6.73,1.42,14.62,14.62,0,0,0,4.55-.66,17.06,17.06,0,0,0,4.27-1.8,14.11,14.11,0,0,0,3.41-2.75,12.69,12.69,0,0,0,2.37-3.51l2.56.67a15,15,0,0,1-2.66,4.17,15.75,15.75,0,0,1-4.17,3.31,24.12,24.12,0,0,1-5.12,2.18A15.11,15.11,0,0,1,394.62,242.69Zm17.89-23.22a22.17,22.17,0,0,0-1.7-7.4,20.56,20.56,0,0,0-3.89-5.87,17.19,17.19,0,0,0-5.59-3.79,15.32,15.32,0,0,0-6.73-1.33,16.23,16.23,0,0,0-6.73,1.42,18.64,18.64,0,0,0-5.5,3.89,20,20,0,0,0-3.79,5.87,24.84,24.84,0,0,0-1.71,7.4Z"/><path class="cls-8" d="M446.75,242.69a18.51,18.51,0,0,1-8.15-1.8,22,22,0,0,1-6.64-4.83,23.88,23.88,0,0,1-4.45-7.21,24.5,24.5,0,0,1-1.61-8.72,21.89,21.89,0,0,1,1.61-8.53,21.53,21.53,0,0,1,10.9-11.66,18.37,18.37,0,0,1,8.06-1.7,20.34,20.34,0,0,1,8.24,1.7,22,22,0,0,1,6.64,4.74,23.28,23.28,0,0,1,4.45,7.11,24.14,24.14,0,0,1,1.61,8.53V221a1.11,1.11,0,0,1-.09.57H428.84a22.31,22.31,0,0,0,1.89,7.4,19,19,0,0,0,9.58,9.76,16.38,16.38,0,0,0,6.72,1.42,14.57,14.57,0,0,0,4.55-.66,16.91,16.91,0,0,0,4.27-1.8,16.72,16.72,0,0,0,3.51-2.75,12.69,12.69,0,0,0,2.37-3.51l2.56.67a16,16,0,0,1-6.73,7.48,24.57,24.57,0,0,1-5.12,2.18A17,17,0,0,1,446.75,242.69Zm17.33-23.22a21.71,21.71,0,0,0-1.71-7.4,20.53,20.53,0,0,0-3.88-5.87,17.23,17.23,0,0,0-5.6-3.79,15.26,15.26,0,0,0-6.73-1.33,16.27,16.27,0,0,0-6.73,1.42,17.54,17.54,0,0,0-5.49,3.89,20.28,20.28,0,0,0-3.8,5.87,24.82,24.82,0,0,0-1.7,7.4Z"/><path class="cls-8" d="M497.65,240.13a4.68,4.68,0,0,0-.88.48c-.59.28-1.18.56-1.87.85a27.36,27.36,0,0,1-2.64.76,12.94,12.94,0,0,1-3.34.28,9.77,9.77,0,0,1-5.78-1.89,6.14,6.14,0,0,1-2.46-5.22V201.65H475V198.8h6.63v-7.58h1.9v7.58H494v2.85H483.53V235a4.77,4.77,0,0,0,1.86,3.7,6.61,6.61,0,0,0,3.92,1.23,12.43,12.43,0,0,0,2.65-.28,14.6,14.6,0,0,0,2.16-.67c.49-.18,1.08-.47,1.57-.66.19-.09.49-.28.68-.38Z"/></g></g></svg>